<svg width="480" height="480" viewBox="0 0 480 480" fill="none" xmlns="http://www.w3.org/2000/svg">
<g clip-path="url(#clip0_23_60)">
<circle cx="240" cy="240" r="240" fill="#83D2FF" fill-opacity="0.63"/>
<path d="M139.149 133.818H191.138V284.67C191.067 298.804 187.693 311.162 181.017 321.744C174.341 332.256 165.108 340.423 153.318 346.247C141.599 352.071 128.034 354.983 112.622 354.983C98.9858 354.983 86.5923 352.604 75.4418 347.845C64.3622 343.087 55.5199 335.7 48.9148 325.686C42.3807 315.672 39.1491 302.852 39.2202 287.227H91.7415C91.9545 292.838 93.0199 297.632 94.9375 301.609C96.9261 305.516 99.6605 308.463 103.141 310.452C106.621 312.44 110.776 313.435 115.605 313.435C120.648 313.435 124.909 312.369 128.389 310.239C131.869 308.037 134.497 304.805 136.273 300.544C138.119 296.283 139.078 290.991 139.149 284.67V133.818ZM422.29 212.866H369.023C368.313 207.398 366.857 202.462 364.655 198.058C362.453 193.655 359.542 189.891 355.919 186.766C352.297 183.641 348 181.261 343.029 179.628C338.128 177.923 332.695 177.071 326.729 177.071C316.147 177.071 307.02 179.663 299.35 184.848C291.75 190.033 285.891 197.526 281.772 207.327C277.723 217.128 275.699 228.989 275.699 242.909C275.699 257.398 277.759 269.543 281.878 279.344C286.069 289.074 291.928 296.425 299.456 301.396C307.056 306.297 316.04 308.747 326.409 308.747C332.233 308.747 337.525 308.001 342.283 306.51C347.113 305.018 351.338 302.852 354.961 300.011C358.654 297.099 361.672 293.584 364.016 289.464C366.431 285.274 368.1 280.551 369.023 275.295L422.29 275.615C421.367 285.274 418.561 294.791 413.874 304.166C409.257 313.541 402.901 322.099 394.804 329.841C386.708 337.511 376.836 343.619 365.188 348.165C353.611 352.71 340.33 354.983 325.344 354.983C305.6 354.983 287.915 350.651 272.29 341.986C256.736 333.25 244.449 320.537 235.429 303.847C226.409 287.156 221.9 266.844 221.9 242.909C221.9 218.903 226.48 198.555 235.642 181.865C244.804 165.175 257.198 152.497 272.823 143.832C288.448 135.168 305.955 130.835 325.344 130.835C338.554 130.835 350.77 132.682 361.992 136.375C373.213 139.997 383.086 145.324 391.608 152.355C400.131 159.315 407.056 167.874 412.382 178.03C417.709 188.186 421.012 199.798 422.29 212.866Z" fill="white"/>
<path d="M139.149 133.818V129.818H135.149V133.818H139.149ZM191.138 133.818H195.138V129.818H191.138V133.818ZM191.138 284.67L195.138 284.691L195.138 284.681V284.67H191.138ZM181.017 321.744L184.394 323.889L184.4 323.879L181.017 321.744ZM153.318 346.247L151.547 342.661L151.538 342.665L153.318 346.247ZM75.4418 347.845L73.8632 351.521L73.8717 351.524L75.4418 347.845ZM48.9148 325.686L45.5648 327.872L45.5702 327.88L45.5757 327.888L48.9148 325.686ZM39.2202 287.227V283.227H35.2383L35.2202 287.209L39.2202 287.227ZM91.7415 287.227L95.7386 287.075L95.5925 283.227H91.7415V287.227ZM94.9375 301.609L91.3344 303.347L91.3532 303.386L91.3728 303.424L94.9375 301.609ZM103.141 310.452L105.125 306.979L105.125 306.979L103.141 310.452ZM128.389 310.239L130.478 313.65L130.503 313.635L130.528 313.619L128.389 310.239ZM136.273 300.544L132.603 298.954L132.591 298.98L132.58 299.006L136.273 300.544ZM139.149 284.67L143.149 284.715L143.149 284.693V284.67H139.149ZM139.149 137.818H191.138V129.818H139.149V137.818ZM187.138 133.818V284.67H195.138V133.818H187.138ZM187.138 284.65C187.07 298.135 183.861 309.74 177.634 319.61L184.4 323.879C191.526 312.584 195.063 299.473 195.138 284.691L187.138 284.65ZM177.641 319.6C171.38 329.457 162.718 337.143 151.547 342.661L155.09 349.833C167.498 343.704 177.302 335.054 184.394 323.889L177.641 319.6ZM151.538 342.665C140.463 348.169 127.526 350.983 112.622 350.983V358.983C128.543 358.983 142.736 355.973 155.098 349.829L151.538 342.665ZM112.622 350.983C99.4582 350.983 87.6077 348.688 77.0118 344.166L73.8717 351.524C85.577 356.519 98.5134 358.983 112.622 358.983V350.983ZM77.0203 344.17C66.655 339.718 58.4263 332.842 52.2539 323.484L45.5757 327.888C52.6135 338.559 62.0695 346.455 73.8632 351.521L77.0203 344.17ZM52.2647 323.5C46.2714 314.315 43.1516 302.325 43.2201 287.245L35.2202 287.209C35.1467 303.38 38.49 317.029 45.5648 327.872L52.2647 323.5ZM39.2202 291.227H91.7415V283.227H39.2202V291.227ZM87.7444 287.379C87.9728 293.396 89.1223 298.759 91.3344 303.347L98.5406 299.872C96.9175 296.506 95.9362 292.28 95.7386 287.075L87.7444 287.379ZM91.3728 303.424C93.6808 307.958 96.9358 311.513 101.156 313.925L105.125 306.979C102.385 305.413 100.171 303.074 98.5022 299.795L91.3728 303.424ZM101.156 313.925C105.353 316.323 110.222 317.435 115.605 317.435V309.435C111.329 309.435 107.888 308.558 105.125 306.979L101.156 313.925ZM115.605 317.435C121.212 317.435 126.236 316.247 130.478 313.65L126.301 306.827C123.582 308.492 120.084 309.435 115.605 309.435V317.435ZM130.528 313.619C134.786 310.925 137.913 307.007 139.965 302.082L132.58 299.006C131.081 302.604 128.953 305.149 126.251 306.858L130.528 313.619ZM139.943 302.134C142.063 297.243 143.074 291.388 143.149 284.715L135.149 284.626C135.082 290.595 134.176 295.322 132.603 298.954L139.943 302.134ZM143.149 284.67V133.818H135.149V284.67H143.149ZM422.29 212.866V216.866H426.701L426.271 212.477L422.29 212.866ZM369.023 212.866L365.056 213.382L365.509 216.866H369.023V212.866ZM364.655 198.058L361.077 199.847L361.077 199.847L364.655 198.058ZM355.919 186.766L358.532 183.737L358.532 183.737L355.919 186.766ZM343.029 179.628L341.715 183.406L341.747 183.417L341.78 183.428L343.029 179.628ZM299.35 184.848L297.11 181.534L297.103 181.539L297.095 181.544L299.35 184.848ZM281.772 207.327L278.084 205.777L278.079 205.788L278.075 205.8L281.772 207.327ZM281.878 279.344L278.191 280.894L278.197 280.91L278.204 280.926L281.878 279.344ZM299.456 301.396L297.252 304.734L297.27 304.746L297.289 304.758L299.456 301.396ZM342.283 306.51L341.103 302.688L341.095 302.691L341.087 302.693L342.283 306.51ZM354.961 300.011L357.429 303.159L357.437 303.152L354.961 300.011ZM364.016 289.464L360.55 287.467L360.545 287.477L360.539 287.486L364.016 289.464ZM369.023 275.295L369.047 271.296L365.668 271.275L365.083 274.603L369.023 275.295ZM422.29 275.615L426.272 275.996L426.688 271.641L422.314 271.615L422.29 275.615ZM413.874 304.166L410.296 302.377L410.291 302.388L410.285 302.399L413.874 304.166ZM394.804 329.841L397.555 332.745L397.562 332.738L397.569 332.732L394.804 329.841ZM365.188 348.165L363.734 344.438L363.726 344.441L365.188 348.165ZM272.29 341.986L270.331 345.473L270.341 345.479L270.35 345.484L272.29 341.986ZM235.429 303.847L238.948 301.945L235.429 303.847ZM235.642 181.865L232.136 179.94L232.136 179.94L235.642 181.865ZM361.992 136.375L360.741 140.175L360.752 140.178L360.763 140.182L361.992 136.375ZM391.608 152.355L389.063 155.441L389.07 155.447L389.078 155.453L391.608 152.355ZM422.29 208.866H369.023V216.866H422.29V208.866ZM372.99 212.351C372.229 206.492 370.657 201.118 368.233 196.269L361.077 199.847C363.057 203.806 364.397 208.303 365.056 213.382L372.99 212.351ZM368.233 196.269C365.802 191.407 362.567 187.218 358.532 183.737L353.306 189.794C356.516 192.564 359.105 195.903 361.077 199.847L368.233 196.269ZM358.532 183.737C354.475 180.236 349.703 177.61 344.277 175.828L341.78 183.428C346.298 184.912 350.12 187.045 353.306 189.794L358.532 183.737ZM344.343 175.85C338.962 173.978 333.076 173.071 326.729 173.071V181.071C332.314 181.071 337.295 181.868 341.715 183.406L344.343 175.85ZM326.729 173.071C315.466 173.071 305.533 175.841 297.11 181.534L301.59 188.162C308.507 183.486 316.827 181.071 326.729 181.071V173.071ZM297.095 181.544C288.765 187.227 282.455 195.378 278.084 205.777L285.459 208.877C289.327 199.673 294.736 192.838 301.604 188.152L297.095 181.544ZM278.075 205.8C273.774 216.211 271.699 228.62 271.699 242.909H279.699C279.699 229.357 281.672 218.045 285.469 208.854L278.075 205.8ZM271.699 242.909C271.699 257.749 273.805 270.458 278.191 280.894L285.566 277.794C281.713 268.627 279.699 257.047 279.699 242.909H271.699ZM278.204 280.926C282.648 291.245 288.967 299.263 297.252 304.734L301.661 298.058C294.889 293.587 289.489 286.903 285.552 277.762L278.204 280.926ZM297.289 304.758C305.625 310.134 315.387 312.747 326.409 312.747V304.747C316.693 304.747 308.487 302.46 301.624 298.035L297.289 304.758ZM326.409 312.747C332.573 312.747 338.275 311.958 343.479 310.327L341.087 302.693C336.774 304.045 331.894 304.747 326.409 304.747V312.747ZM343.463 310.332C348.714 308.71 353.386 306.33 357.429 303.159L352.492 296.864C349.29 299.375 345.511 301.327 341.103 302.688L343.463 310.332ZM357.437 303.152C361.539 299.918 364.896 296.007 367.493 291.443L360.539 287.486C358.449 291.161 355.769 294.28 352.484 296.87L357.437 303.152ZM367.482 291.462C370.152 286.828 371.967 281.655 372.963 275.988L365.083 274.603C364.232 279.447 362.709 283.721 360.55 287.467L367.482 291.462ZM368.999 279.295L422.266 279.615L422.314 271.615L369.047 271.296L368.999 279.295ZM418.308 275.234C417.435 284.365 414.781 293.407 410.296 302.377L417.452 305.955C422.342 296.175 425.298 286.183 426.272 275.996L418.308 275.234ZM410.285 302.399C405.89 311.325 399.823 319.508 392.04 326.95L397.569 332.732C405.979 324.69 412.625 315.758 417.462 305.933L410.285 302.399ZM392.053 326.937C384.375 334.212 374.958 340.058 363.734 344.438L366.642 351.891C378.713 347.18 389.041 340.811 397.555 332.745L392.053 326.937ZM363.726 344.441C352.7 348.771 339.929 350.983 325.344 350.983V358.983C340.73 358.983 354.523 356.65 366.65 351.888L363.726 344.441ZM325.344 350.983C306.206 350.983 289.201 346.79 274.23 338.488L270.35 345.484C286.629 354.512 304.994 358.983 325.344 358.983V350.983ZM274.249 338.498C259.397 330.157 247.632 318.014 238.948 301.945L231.91 305.748C241.266 323.06 254.075 336.343 270.331 345.473L274.249 338.498ZM238.948 301.945C230.316 285.972 225.9 266.35 225.9 242.909H217.9C217.9 267.338 222.503 288.34 231.91 305.748L238.948 301.945ZM225.9 242.909C225.9 219.404 230.385 199.756 239.149 183.79L232.136 179.94C222.576 197.355 217.9 218.403 217.9 242.909H225.9ZM239.149 183.79C247.972 167.716 259.842 155.605 274.763 147.331L270.883 140.334C254.554 149.389 241.636 162.634 232.136 179.94L239.149 183.79ZM274.763 147.331C289.744 139.023 306.574 134.835 325.344 134.835V126.835C305.336 126.835 287.151 131.313 270.883 140.334L274.763 147.331ZM325.344 134.835C338.179 134.835 349.968 136.629 360.741 140.175L363.242 132.575C351.573 128.735 338.929 126.835 325.344 126.835V134.835ZM360.763 140.182C371.537 143.659 380.955 148.752 389.063 155.441L394.154 149.27C385.216 141.896 374.89 136.335 363.221 132.568L360.763 140.182ZM389.078 155.453C397.166 162.058 403.753 170.188 408.84 179.888L415.925 176.172C410.359 165.559 403.096 156.573 394.138 149.257L389.078 155.453ZM408.84 179.888C413.895 189.526 417.074 200.627 418.309 213.256L426.271 212.477C424.95 198.969 421.523 186.846 415.925 176.172L408.84 179.888Z" fill="#9FC1E0"/>
</g>
<defs>
<clipPath id="clip0_23_60">
<rect width="480" height="480" fill="white"/>
</clipPath>
</defs>
</svg>
